<svg id="Layer_1" data-name="Layer 1" xmlns="http://www.w3.org/2000/svg" xmlns:xlink="http://www.w3.org/1999/xlink" viewBox="0 0 695 695"><defs><style>.cls-1{fill:none;}.cls-2{isolation:isolate;}.cls-3{clip-path:url(#clip-path);}.cls-4{clip-path:url(#clip-path-2);}.cls-5{clip-path:url(#clip-path-3);}.cls-6{clip-path:url(#clip-path-4);}.cls-7{clip-path:url(#clip-path-5);}</style><clipPath id="clip-path" transform="translate(-149.92 -199.49)"><path class="cls-1" d="M566.16,556.88l-24.83,14.34a3.56,3.56,0,0,0-1.4-2.58l24.84-14.34A3.55,3.55,0,0,1,566.16,556.88Z"/></clipPath><clipPath id="clip-path-2" transform="translate(-149.92 -199.49)"><path class="cls-1" d="M565,559.23l-24.84,14.34a2.4,2.4,0,0,0,1.2-2.35l24.83-14.34A2.38,2.38,0,0,1,565,559.23Z"/></clipPath><clipPath id="clip-path-3" transform="translate(-149.92 -199.49)"><path class="cls-1" d="M492.94,500.16,468.1,514.5a2.39,2.39,0,0,0-2.7-.31l24.84-14.34A2.39,2.39,0,0,1,492.94,500.16Z"/></clipPath><clipPath id="clip-path-4" transform="translate(-149.92 -199.49)"><path class="cls-1" d="M488.27,502,463.44,516.3a3.15,3.15,0,0,1,1.46-3L489.74,499A3.13,3.13,0,0,0,488.27,502Z"/></clipPath><clipPath id="clip-path-5" transform="translate(-149.92 -199.49)"><path class="cls-1" d="M497.22,594.59l-24.83,14.34c-2.25,1.14-5.22-1.09-5.34-4l24.84-14.34C492,593.5,495,595.73,497.22,594.59Z"/></clipPath></defs><path d="M497.42,209.49A336.38,336.38,0,1,1,366.05,236a335.48,335.48,0,0,1,131.37-26.52m0,576a237.7,237.7,0,1,0-92.84-18.74,237,237,0,0,0,92.84,18.74m0-586c-191.92,0-347.5,155.59-347.5,347.5s155.58,347.5,347.5,347.5S844.92,738.91,844.92,547s-155.58-347.5-347.5-347.5Zm0,576c-126.2,0-228.5-102.3-228.5-228.5s102.3-228.5,228.5-228.5S725.92,420.8,725.92,547s-102.3,228.5-228.5,228.5Z" transform="translate(-149.92 -199.49)"/><path d="M505.52,233.7l9.68,1.09,12.59,45,.23,0,22.3-41,9.71,1.1L554,293.76l-7.66-.87,4.48-39.75-3.84-.43L557.1,241l-27.32,50-6.2-.7L508.12,235.5l7.31,13.65-3.85-.43-4.48,39.75-7.66-.86Z" transform="translate(-149.92 -199.49)"/><path d="M590.13,248.76l6.5,2.12-2.79,8.54-2.25-.73L563,297l-8.43-2.75Zm-17.52,28.8,23.3,7.61.22,7.2-28-9.13Zm19.16-18.81,2.79-8.55,4.25,1.39,1.88,57.69-8.43-2.75Z" transform="translate(-149.92 -199.49)"/><path d="M627.24,262.37l18.63,9.89a21.24,21.24,0,0,1,7.51,6.3,14.66,14.66,0,0,1,2.83,8,17.07,17.07,0,0,1-2.2,8.84l0,.06a16.76,16.76,0,0,1-7,7.22,14.72,14.72,0,0,1-9.5,1.51l.35,25.22-8.6-4.57V301.3l-.21-.11-.22-.12-9.79-5.2-9.76,18.36-7.43-4Zm5.46,32.91c2.85,1.52,5.47,2,7.83,1.29s4.28-2.36,5.74-5.11l0-.06a9.08,9.08,0,0,0,.83-7.54,10.89,10.89,0,0,0-5.54-5.87l-10.23-5.43-9.12,17.17Z" transform="translate(-149.92 -199.49)"/><path d="M640.8,331.46a4.95,4.95,0,0,1,7.7-5,4.88,4.88,0,0,1,1.28,6.85,4.84,4.84,0,0,1-3.18,2.11,5.07,5.07,0,0,1-5.8-4Z" transform="translate(-149.92 -199.49)"/><path d="M657.63,341.26a22.75,22.75,0,0,1-.32-13.07,33.71,33.71,0,0,1,7.35-13.33l0,0a33.42,33.42,0,0,1,12-9.31,22.62,22.62,0,0,1,12.92-1.68A25.32,25.32,0,0,1,702,309.94a24.69,24.69,0,0,1,6.71,8.76,21.52,21.52,0,0,1,1.9,10,20.3,20.3,0,0,1-3.14,9.74l-.22.31-6.37-5.45.32-.72a14,14,0,0,0,1.44-6,12.66,12.66,0,0,0-1.34-5.78,16.36,16.36,0,0,0-4.16-5.17,15.19,15.19,0,0,0-8.28-3.77,16.38,16.38,0,0,0-9,1.67,26.83,26.83,0,0,0-8.6,6.94l0,0a27,27,0,0,0-5.53,9.59,16.22,16.22,0,0,0-.29,9.18,15.14,15.14,0,0,0,5,7.58,16.06,16.06,0,0,0,5.69,3.27,12.88,12.88,0,0,0,6,.41,15.4,15.4,0,0,0,6-2.47l.33-.21,6.37,5.45-.3.24a20.58,20.58,0,0,1-9.16,4.66,21,21,0,0,1-10.13-.33,27.42,27.42,0,0,1-17.6-16.6Z" transform="translate(-149.92 -199.49)"/><path d="M725.74,334l5.67,6.23-40.16,36.48-5.67-6.23Z" transform="translate(-149.92 -199.49)"/><path d="M749.58,362.82l4,5.58-7.33,5.2-1.37-1.93-45.79,13.68-5.14-7.24Zm-31.23,12.71,14.19,20-4.11,5.91-17-24Zm26.6-3.71,7.33-5.2,2.59,3.65L722,417.73l-5.13-7.23Z" transform="translate(-149.92 -199.49)"/><path d="M771,395.63l3.71,7.56-42.15,20.7L743.7,446.6l-6.55,3.22-14.87-30.27Z" transform="translate(-149.92 -199.49)"/><path d="M767.57,459.37l6.46,23.3-7.13,2-6.46-23.3Z" transform="translate(-149.92 -199.49)"/><path d="M807.18,504.74,810,538.49l-7.26.62-2.16-25.37-17.08,1.45,2,23.23-7.08.6-2-23.23-22.63,1.92-.71-8.39Z" transform="translate(-149.92 -199.49)"/><path d="M810.16,550l-1.44,21A21.13,21.13,0,0,1,806,580.5a14.71,14.71,0,0,1-6.17,5.85,17.09,17.09,0,0,1-9,1.59h-.08a16.85,16.85,0,0,1-9.45-3.45,14.73,14.73,0,0,1-5.25-8.07L753.25,587l.66-9.72,21.5-9.6c0-.1,0-.19,0-.25s0-.14,0-.24l.75-11.07-20.74-1.42.58-8.4Zm-27.83,18.4c-.22,3.23.46,5.79,2,7.68s3.9,2.94,7,3.15h.08a9.13,9.13,0,0,0,7.22-2.31,10.87,10.87,0,0,0,3.09-7.46l.8-11.55-19.4-1.33Z" transform="translate(-149.92 -199.49)"/><path d="M753.06,598.92a22.52,22.52,0,0,1,11.59-6.1,33.46,33.46,0,0,1,15.2.72l.08,0a33.23,33.23,0,0,1,13.65,6.71,22.67,22.67,0,0,1,7.18,11A28.53,28.53,0,0,1,794,637.4a22.74,22.74,0,0,1-11.57,6.11,33.3,33.3,0,0,1-15.16-.72l-.08,0a33.46,33.46,0,0,1-13.65-6.69,22.65,22.65,0,0,1-7.21-10.92,25.76,25.76,0,0,1,0-13.94A26.1,26.1,0,0,1,753.06,598.92Zm.79,23.46a16.16,16.16,0,0,0,5.48,7.38,26.75,26.75,0,0,0,10,4.67l.07,0a26.62,26.62,0,0,0,11.05.73,16.1,16.1,0,0,0,8.33-3.88,15.75,15.75,0,0,0,4.64-8,16,16,0,0,0-.18-9.26,16.13,16.13,0,0,0-5.41-7.43,26.53,26.53,0,0,0-10.07-4.72l-.07,0a26.5,26.5,0,0,0-11.07-.71,16.28,16.28,0,0,0-8.35,3.87,17.21,17.21,0,0,0-4.44,17.34Z" transform="translate(-149.92 -199.49)"/><path d="M788.56,662.1l-3.37,7-57.67,9.33,11-4.61-1.58,3.28L773,694.46,769.38,702l-48.9-23.49,3.37-7,57.73-9.3-10.94,4.63,1.58-3.29L736,646.16l3.63-7.55Z" transform="translate(-149.92 -199.49)"/><path d="M747.73,721.2l9.67-13.47,5.93,4.26L739.06,745.8l-5.93-4.26,9.67-13.47-38.15-27.38,4.94-6.87Z" transform="translate(-149.92 -199.49)"/><path d="M720,766.53l-25.45,23.22-4.91-5.39,19.22-17.54-10.64-11.66L680,771.75l-4.76-5.22,18.19-16.6-11.33-12.41-19.22,17.53L658,749.67l25.44-23.22Z" transform="translate(-149.92 -199.49)"/><path d="M684.2,798.16l-6.55,4.2-54-22.37,11.76,1.85-3.07,2L654,817.53l-7.06,4.52-29.25-45.69,6.55-4.2,54,22.43-11.74-1.81,3.07-2L647.88,757l7.07-4.53Z" transform="translate(-149.92 -199.49)"/><path d="M633.38,828.94l-17.77,7.12a28.21,28.21,0,0,1-14,2.19A21.36,21.36,0,0,1,590,833a31.81,31.81,0,0,1-8.27-12.41l0-.07a32.51,32.51,0,0,1-2.63-14.76,21.32,21.32,0,0,1,4.68-11.92,27.9,27.9,0,0,1,11.66-8.13l17.77-7.12Zm-34.5-36.77a19.36,19.36,0,0,0-8.19,5.75,14.67,14.67,0,0,0-3.11,8.5,25.55,25.55,0,0,0,2.1,10.82l0,.07a25.2,25.2,0,0,0,5.95,9.23,14.76,14.76,0,0,0,8.1,4,19.28,19.28,0,0,0,9.87-1.51l9.21-3.69-14.75-36.82Z" transform="translate(-149.92 -199.49)"/><path d="M546.94,801.38a17,17,0,0,1,7.94,4.14,14.74,14.74,0,0,1,4.21,7.67l.12.56L551.07,815l-.15-.47a7.85,7.85,0,0,0-2.71-4,11,11,0,0,0-4.86-2.09,19.12,19.12,0,0,0-6.46,0,17.36,17.36,0,0,0-6.06,1.94,9.2,9.2,0,0,0-3.6,3.47,7,7,0,0,0-.77,4.57v0a6.39,6.39,0,0,0,3.11,4.79q2.61,1.56,8.14,1.91l6,.34q8.13.48,12.56,3.59a13,13,0,0,1,5.33,9.06v0a13.79,13.79,0,0,1-1.31,8.43,16.66,16.66,0,0,1-6,6.47,24.87,24.87,0,0,1-9.78,3.48,24.29,24.29,0,0,1-10.14-.41,16.6,16.6,0,0,1-7.57-4.27,15,15,0,0,1-4-7.51l-.13-.59,8.15-1.23.14.47a8.28,8.28,0,0,0,2.5,4,9.71,9.71,0,0,0,4.33,2.14,15.52,15.52,0,0,0,5.76.1,15.77,15.77,0,0,0,5.61-1.86,8.89,8.89,0,0,0,3.38-3.31,6.64,6.64,0,0,0,.71-4.33v0a6.08,6.08,0,0,0-3.12-4.55,18.4,18.4,0,0,0-7.85-1.85l-6-.38q-8.6-.5-12.91-3.51c-2.87-2-4.63-5.08-5.25-9.22v0a14.78,14.78,0,0,1,1.19-8.87,15.94,15.94,0,0,1,6.22-6.6,31.94,31.94,0,0,1,21.47-3.39Z" transform="translate(-149.92 -199.49)"/><path d="M503,807.73a22.49,22.49,0,0,1,8.5,10,33.58,33.58,0,0,1,2.64,15v.08a33.13,33.13,0,0,1-3.55,14.79,22.58,22.58,0,0,1-9.1,9.41,28.48,28.48,0,0,1-27-.82,22.65,22.65,0,0,1-8.5-9.94,33.33,33.33,0,0,1-2.64-15v-.08a33.4,33.4,0,0,1,3.53-14.79A22.6,22.6,0,0,1,476,807a25.67,25.67,0,0,1,13.61-3A26,26,0,0,1,503,807.73Zm-22.71,5.93a16,16,0,0,0-6,7,26.69,26.69,0,0,0-2.35,10.8v.07a26.56,26.56,0,0,0,1.73,10.94,16.08,16.08,0,0,0,5.61,7.28,17.2,17.2,0,0,0,17.81.55,16.11,16.11,0,0,0,6.06-6.91,26.43,26.43,0,0,0,2.39-10.86v-.07a26.36,26.36,0,0,0-1.74-11,16.24,16.24,0,0,0-5.61-7.3,15.77,15.77,0,0,0-8.87-2.76A15.6,15.6,0,0,0,480.33,813.66Z" transform="translate(-149.92 -199.49)"/><path d="M450,856l-33.19-6.77,1.45-7.15,24.94,5.09,3.43-16.8-22.84-4.66,1.42-7L448,823.42l4.55-22.25,8.25,1.68Z" transform="translate(-149.92 -199.49)"/><path d="M395.62,834.53l15.55,5.75-2.53,6.84-39-14.44,2.54-6.84,15.55,5.75,16.29-44,7.93,2.93Z" transform="translate(-149.92 -199.49)"/><path d="M360.66,829.84l-7.45-4.68,14.09-41.33-.16-.1-32.29,29.88-6.78-4.26L341,767.3l-.16-.1L309.7,797.8l-7.44-4.68L343.51,755l6.88,4.33L338.5,800.1l.16.1,31.62-28.4,6.88,4.33Z" transform="translate(-149.92 -199.49)"/><path d="M288.81,767.05l-6.18,6.53-3.24-3.08,23-52.93,6.44,6.1ZM286,776.78l-5-4.7,6.18-6.53,1.72,1.63,42.27-22.3,6.44,6.1Zm28.17-18.52-17.8-16.86,2.89-6.6L320.62,755Z" transform="translate(-149.92 -199.49)"/><path d="M258.33,748.63,245.7,731.74a21.37,21.37,0,0,1-4.11-8.9,14.8,14.8,0,0,1,.86-8.46,17,17,0,0,1,5.77-7l.06,0a16.74,16.74,0,0,1,9.41-3.54,14.66,14.66,0,0,1,9.24,2.69l10.45-23,5.82,7.8-10,21.3.15.2.15.19,6.63,8.89,16.66-12.45,5,6.75Zm9.1-32.1q-2.9-3.88-6.53-4.5a9.48,9.48,0,0,0-7.37,2.17l-.06,0a9.12,9.12,0,0,0-4,6.47,10.89,10.89,0,0,0,2.52,7.67l6.93,9.28L274.52,726Z" transform="translate(-149.92 -199.49)"/><path d="M228.48,706.51l-16-30.5,6.46-3.38,12.09,23,14-7.34-11.44-21.81,6.26-3.28,11.44,21.81,14.88-7.81-12.08-23,6.46-3.39,16,30.5Z" transform="translate(-149.92 -199.49)"/><path d="M201.07,647.79l-4.9-18.5a28.2,28.2,0,0,1-.46-14.17,21.3,21.3,0,0,1,6.64-10.86,31.77,31.77,0,0,1,13.32-6.69l.07,0a32.63,32.63,0,0,1,15-.81,21.26,21.26,0,0,1,11.26,6.1,27.9,27.9,0,0,1,6.65,12.57l4.9,18.5ZM241.77,618a19.22,19.22,0,0,0-4.71-8.83,14.72,14.72,0,0,0-8.05-4.13,25.63,25.63,0,0,0-11,.77l-.07,0a25.19,25.19,0,0,0-9.88,4.78,14.75,14.75,0,0,0-4.92,7.56,19.28,19.28,0,0,0,.29,10l2.54,9.59,38.34-10.15Z" transform="translate(-149.92 -199.49)"/><path d="M188,591.87l-3.1-34.3,7.27-.66,2.34,25.92,15.72-1.42L208,556.88l7-.63,2.21,24.52L234,579.26l-2.34-25.91,7.27-.65L242,587Z" transform="translate(-149.92 -199.49)"/><path d="M184.31,548.45l.65-9.08,45.79-11.55v-.19l-43.69-17.92.65-9.12,52.74,23.14-.66,9.3Z" transform="translate(-149.92 -199.49)"/><path d="M189.9,490.32l8-33.5,7.09,1.7L199,483.82l15.36,3.67L220,463.54l6.87,1.64-5.72,24,16.34,3.9,6.05-25.31,7.09,1.7-8,33.5Z" transform="translate(-149.92 -199.49)"/><path d="M202,444.72l3.14-7.82,43.56,17.55L258.12,431l6.76,2.73L252.28,465Z" transform="translate(-149.92 -199.49)"/><path d="M267.78,423.24a22.43,22.43,0,0,1-12.86,2.47,33.65,33.65,0,0,1-14.33-5.12l-.07,0a33.28,33.28,0,0,1-11.1-10.4,22.66,22.66,0,0,1-3.68-12.57,28.52,28.52,0,0,1,14.08-23.07A22.71,22.71,0,0,1,252.67,372a33.34,33.34,0,0,1,14.3,5.11l.07,0a33.37,33.37,0,0,1,11.11,10.38,22.68,22.68,0,0,1,3.71,12.54,28.58,28.58,0,0,1-14.08,23.14Zm6.09-22.66a16.13,16.13,0,0,0-3.09-8.66,26.84,26.84,0,0,0-8.22-7.39l-.07,0a26.53,26.53,0,0,0-10.36-3.91,16.09,16.09,0,0,0-9.1,1.28,15.72,15.72,0,0,0-6.76,6.29,15.88,15.88,0,0,0-2.53,8.92,16.16,16.16,0,0,0,3,8.68,26.65,26.65,0,0,0,8.25,7.44l.07,0a26.5,26.5,0,0,0,10.38,3.91,16.2,16.2,0,0,0,9.12-1.27,17.23,17.23,0,0,0,9.3-15.29Z" transform="translate(-149.92 -199.49)"/><path d="M252.14,353l5.59-6.3,40.56,36-5.6,6.29Zm24.21,15.88,9.24-10.4q3.62-4.08,3.51-8.22a10.26,10.26,0,0,0-3.88-7.5l-.05,0q-3.82-3.39-7.94-3t-7.74,4.46l-9.24,10.4-5.32-4.72,10.64-12a19.15,19.15,0,0,1,7.91-5.53,16.24,16.24,0,0,1,8.87-.59,18.37,18.37,0,0,1,8.48,4.47l.05.05a18.6,18.6,0,0,1,5.47,7.92,16.16,16.16,0,0,1,.48,8.9,18.93,18.93,0,0,1-4.56,8.5l-10.64,12Z" transform="translate(-149.92 -199.49)"/><path d="M286.11,316.57l26.57-21.91,4.64,5.63-20.07,16.55L307.3,329l19-15.67,4.5,5.46-19,15.67,10.7,13,20.07-16.55,4.64,5.62-26.57,21.92Z" transform="translate(-149.92 -199.49)"/><path d="M323.33,287.13l18.18-10.69a21.23,21.23,0,0,1,9.29-3.11,14.74,14.74,0,0,1,8.31,1.79,17,17,0,0,1,6.38,6.5l0,.07a16.87,16.87,0,0,1,2.48,9.75,14.67,14.67,0,0,1-3.69,8.88L386,313.23l-8.4,4.93-20.06-12.32-.21.12-.21.13-9.56,5.62,10.53,17.92-7.26,4.27Zm30.9,12.58q4.18-2.46,5.2-6t-1.35-7.56l0-.06a9.1,9.1,0,0,0-6-4.66,10.88,10.88,0,0,0-7.9,1.66l-10,5.87L344,305.71Z" transform="translate(-149.92 -199.49)"/><path d="M415.6,245.6l7.14-1.84L439.59,309l-7.13,1.85Z" transform="translate(-149.92 -199.49)"/><g class="cls-2"><g class="cls-2"><g class="cls-3"><g class="cls-2"><path d="M566.16,556.88l-24.83,14.34a3.56,3.56,0,0,0-1.4-2.58l24.84-14.34a3.55,3.55,0,0,1,1.39,2.58" transform="translate(-149.92 -199.49)"/></g></g></g><g class="cls-2"><g class="cls-4"><g class="cls-2"><path d="M565,559.23l-24.84,14.34a2.4,2.4,0,0,0,1.2-2.35l24.83-14.34a2.38,2.38,0,0,1-1.19,2.35" transform="translate(-149.92 -199.49)"/></g></g></g><polygon points="414.84 354.81 390.01 369.14 318.18 315.01 343.01 300.67 414.84 354.81"/><g class="cls-2"><g class="cls-5"><g class="cls-2"><path d="M492.94,500.16,468.1,514.5a2.39,2.39,0,0,0-2.7-.31l24.84-14.34a2.39,2.39,0,0,1,2.7.31" transform="translate(-149.92 -199.49)"/></g></g></g><g class="cls-2"><g class="cls-6"><g class="cls-2"><path d="M488.27,502,463.44,516.3a3.15,3.15,0,0,1,1.46-3L489.74,499a3.13,3.13,0,0,0-1.47,3" transform="translate(-149.92 -199.49)"/></g></g></g><polygon points="415.66 360.55 390.82 374.89 322.46 409.44 347.3 395.1 415.66 360.55"/><polygon points="341.96 391.07 317.13 405.41 313.51 316.81 338.35 302.47 341.96 391.07"/><path d="M565.17,553.54c2.32,1.74,2.51,5.29.41,6.5l-68.36,34.55c-2.25,1.14-5.21-1.09-5.33-4L488.27,502a3.13,3.13,0,0,1,1.47-3,3.24,3.24,0,0,1,3.6.42Zm1,3.34a3.55,3.55,0,0,0-1.39-2.58l-71.83-54.14a2.27,2.27,0,0,0-3.81,1.92l3.63,88.61a3.52,3.52,0,0,0,1.4,2.65,2.45,2.45,0,0,0,2.6.37L565,559.23a2.38,2.38,0,0,0,1.19-2.35" transform="translate(-149.92 -199.49)"/><g class="cls-2"><g class="cls-7"><g class="cls-2"><path d="M497.22,594.59l-24.83,14.34c-2.25,1.14-5.22-1.09-5.34-4l24.84-14.34c.12,2.93,3.08,5.16,5.33,4" transform="translate(-149.92 -199.49)"/></g></g></g></g></svg>